<?xml version="1.0" encoding="UTF-8" standalone="no"?>
<!DOCTYPE svg PUBLIC "-//W3C//DTD SVG 1.1//EN" "http://www.w3.org/Graphics/SVG/1.1/DTD/svg11.dtd">
<svg version="1.1" xmlns="http://www.w3.org/2000/svg" xmlns:xlink="http://www.w3.org/1999/xlink" preserveAspectRatio="xMidYMid meet" viewBox="0 0 640 640" width="648" height="648"><defs><path d="M214.03 201.94C207.46 205.23 203.31 211.94 203.31 219.29C203.31 238.08 203.31 281.7 203.31 300.29C203.31 308.22 207.79 315.47 214.88 319.01C233.75 328.45 278.78 350.96 297.65 360.4C304.94 364.04 313.53 364.04 320.82 360.4C339.69 350.96 384.84 328.39 403.75 318.93C410.74 315.44 415.16 308.29 415.16 300.47C415.16 281.83 415.16 237.84 415.16 218.99C415.16 211.83 411.11 205.28 404.71 202.08C385.61 192.53 340.68 170.07 322.06 160.76C313.99 156.72 304.48 156.72 296.41 160.76C277.79 170.07 233.07 192.42 214.03 201.94Z" id="aft0usLv0"></path><path d="M226.27 209.46C220.54 212.32 216.92 218.18 216.92 224.58C216.92 240.95 216.92 278.96 216.92 295.17C216.92 302.08 220.82 308.39 227 311.48C243.45 319.71 282.69 339.33 299.14 347.55C305.49 350.73 312.97 350.73 319.33 347.55C335.77 339.33 375.13 319.65 391.6 311.42C397.7 308.37 401.55 302.14 401.55 295.32C401.55 279.08 401.55 240.74 401.55 224.31C401.55 218.07 398.02 212.37 392.44 209.58C375.8 201.26 336.64 181.68 320.41 173.56C313.38 170.04 305.09 170.04 298.05 173.56C281.83 181.68 242.86 201.16 226.27 209.46Z" id="a1SAzqBB0l"></path><path d="M234.74 214.8C229.61 217.36 226.37 222.6 226.37 228.33C226.37 242.99 226.37 277.02 226.37 291.53C226.37 297.72 229.86 303.37 235.4 306.14C250.12 313.5 285.25 331.06 299.97 338.42C305.66 341.27 312.36 341.27 318.05 338.42C332.77 331.06 368 313.45 382.75 306.08C388.21 303.35 391.66 297.77 391.66 291.67C391.66 277.13 391.66 242.8 391.66 228.1C391.66 222.51 388.5 217.4 383.5 214.9C368.6 207.45 333.55 189.93 319.02 182.66C312.72 179.51 305.31 179.51 299 182.66C284.48 189.93 249.59 207.37 234.74 214.8Z" id="efIPoIdLk"></path><path d="M329.98 157.22C327.5 158.46 325.94 160.99 325.94 163.76C325.94 170.84 325.94 187.29 325.94 194.3C325.94 197.28 327.62 200.02 330.3 201.35C337.41 204.91 354.38 213.4 361.5 216.95C364.25 218.33 367.48 218.33 370.23 216.95C377.34 213.4 394.37 204.89 401.49 201.32C404.13 200.01 405.79 197.31 405.79 194.36C405.79 187.34 405.79 170.75 405.79 163.65C405.79 160.95 404.27 158.48 401.85 157.27C394.66 153.67 377.72 145.21 370.7 141.7C367.66 140.17 364.07 140.17 361.03 141.7C354.01 145.21 337.15 153.63 329.98 157.22Z" id="a2CLRHrZpk"></path><path d="M338.5 162.59C336.62 163.53 335.44 165.44 335.44 167.54C335.44 172.9 335.44 185.33 335.44 190.64C335.44 192.9 336.71 194.96 338.74 195.97C344.12 198.67 356.96 205.09 362.34 207.78C364.42 208.82 366.87 208.82 368.95 207.78C374.33 205.09 387.2 198.65 392.59 195.95C394.59 194.96 395.85 192.92 395.85 190.69C395.85 185.37 395.85 172.83 395.85 167.45C395.85 165.41 394.69 163.54 392.87 162.63C387.42 159.91 374.61 153.5 369.3 150.85C367 149.7 364.29 149.7 361.98 150.85C356.68 153.5 343.93 159.88 338.5 162.59Z" id="c15kVWCZLR"></path><path d="M370.52 161.93L370.54 161.93L370.57 161.93L370.59 161.94L370.61 161.94L370.63 161.95L370.66 161.95L370.68 161.96L370.7 161.97L370.72 161.98L370.74 161.99L370.76 162L370.78 162.01L370.8 162.02L370.82 162.04L370.83 162.05L370.85 162.06L370.87 162.08L370.88 162.09L370.9 162.11L370.91 162.13L370.93 162.14L370.94 162.16L370.95 162.18L370.97 162.2L370.98 162.22L370.99 162.24L371 162.26L371.01 162.28L371.01 162.3L371.02 162.32L371.03 162.34L371.04 162.36L371.04 162.39L371.04 162.41L371.05 162.43L371.05 162.46L371.05 162.48L371.05 162.5L371.05 174.08L382.63 174.08L382.65 174.08L382.68 174.08L382.7 174.08L382.72 174.09L382.75 174.09L382.77 174.1L382.79 174.1L382.81 174.11L382.83 174.12L382.85 174.13L382.87 174.13L382.89 174.14L382.91 174.15L382.93 174.17L382.95 174.18L382.97 174.19L382.99 174.2L383.01 174.22L383.02 174.23L383.04 174.25L383.05 174.27L383.07 174.28L383.08 174.3L383.1 174.32L383.11 174.33L383.12 174.35L383.13 174.37L383.14 174.39L383.15 174.41L383.16 174.43L383.17 174.45L383.18 174.48L383.18 174.5L383.19 174.52L383.2 174.54L383.2 174.56L383.2 174.59L383.21 174.61L383.21 174.63L383.21 174.66L383.21 183.92L383.21 183.94L383.21 183.97L383.2 183.99L383.2 184.01L383.2 184.04L383.19 184.06L383.18 184.08L383.18 184.1L383.17 184.12L383.16 184.14L383.15 184.17L383.14 184.19L383.13 184.21L383.12 184.22L383.11 184.24L383.1 184.26L383.08 184.28L383.07 184.3L383.05 184.31L383.04 184.33L383.02 184.34L383.01 184.36L382.99 184.37L382.97 184.39L382.95 184.4L382.93 184.41L382.91 184.42L382.89 184.43L382.87 184.44L382.85 184.45L382.83 184.46L382.81 184.47L382.79 184.48L382.77 184.48L382.75 184.49L382.72 184.49L382.7 184.49L382.68 184.5L382.65 184.5L382.63 184.5L371.05 184.5L371.05 196.07L371.05 196.1L371.05 196.12L371.05 196.15L371.04 196.17L371.04 196.19L371.04 196.21L371.03 196.24L371.02 196.26L371.01 196.28L371.01 196.3L371 196.32L370.99 196.34L370.98 196.36L370.97 196.38L370.95 196.4L370.94 196.42L370.93 196.43L370.91 196.45L370.9 196.47L370.88 196.48L370.87 196.5L370.85 196.51L370.83 196.53L370.82 196.54L370.8 196.55L370.78 196.57L370.76 196.58L370.74 196.59L370.72 196.6L370.7 196.61L370.68 196.62L370.66 196.62L370.63 196.63L370.61 196.64L370.59 196.64L370.57 196.65L370.54 196.65L370.52 196.65L370.5 196.65L370.47 196.65L361.21 196.65L361.19 196.65L361.16 196.65L361.14 196.65L361.12 196.65L361.1 196.64L361.07 196.64L361.05 196.63L361.03 196.62L361.01 196.62L360.99 196.61L360.97 196.6L360.95 196.59L360.93 196.58L360.91 196.57L360.89 196.55L360.87 196.54L360.85 196.53L360.84 196.51L360.82 196.5L360.8 196.48L360.79 196.47L360.77 196.45L360.76 196.43L360.75 196.42L360.73 196.4L360.72 196.38L360.71 196.36L360.7 196.34L360.69 196.32L360.68 196.3L360.67 196.28L360.66 196.26L360.66 196.24L360.65 196.21L360.65 196.19L360.64 196.17L360.64 196.15L360.64 196.12L360.63 196.1L360.63 196.07L360.63 184.5L349.06 184.5L349.03 184.5L349.01 184.5L348.99 184.49L348.96 184.49L348.94 184.49L348.92 184.48L348.9 184.48L348.87 184.47L348.85 184.46L348.83 184.45L348.81 184.44L348.79 184.43L348.77 184.42L348.75 184.41L348.73 184.4L348.72 184.39L348.7 184.37L348.68 184.36L348.66 184.34L348.65 184.33L348.63 184.31L348.62 184.3L348.6 184.28L348.59 184.26L348.58 184.24L348.56 184.22L348.55 184.21L348.54 184.19L348.53 184.17L348.52 184.14L348.52 184.12L348.51 184.1L348.5 184.08L348.49 184.06L348.49 184.04L348.49 184.01L348.48 183.99L348.48 183.97L348.48 183.94L348.48 183.92L348.48 174.66L348.48 174.63L348.48 174.61L348.48 174.59L348.49 174.56L348.49 174.54L348.49 174.52L348.5 174.5L348.51 174.48L348.52 174.45L348.52 174.43L348.53 174.41L348.54 174.39L348.55 174.37L348.56 174.35L348.58 174.33L348.59 174.32L348.6 174.3L348.62 174.28L348.63 174.27L348.65 174.25L348.66 174.23L348.68 174.22L348.7 174.2L348.72 174.19L348.73 174.18L348.75 174.17L348.77 174.15L348.79 174.14L348.81 174.13L348.83 174.13L348.85 174.12L348.87 174.11L348.9 174.1L348.92 174.1L348.94 174.09L348.96 174.09L348.99 174.08L349.01 174.08L349.03 174.08L349.06 174.08L360.63 174.08L360.63 162.5L360.63 162.48L360.64 162.46L360.64 162.43L360.64 162.41L360.65 162.39L360.65 162.36L360.66 162.34L360.66 162.32L360.67 162.3L360.68 162.28L360.69 162.26L360.7 162.24L360.71 162.22L360.72 162.2L360.73 162.18L360.75 162.16L360.76 162.14L360.77 162.13L360.79 162.11L360.8 162.09L360.82 162.08L360.84 162.06L360.85 162.05L360.87 162.04L360.89 162.02L360.91 162.01L360.93 162L360.95 161.99L360.97 161.98L360.99 161.97L361.01 161.96L361.03 161.95L361.05 161.95L361.07 161.94L361.1 161.94L361.12 161.93L361.14 161.93L361.16 161.93L361.19 161.92L361.21 161.92L370.47 161.92L370.5 161.92L370.52 161.93Z" id="d5aMTkLTM"></path><path d="M262.43 292.03L262.43 228.83L357.59 228.83L357.59 292.03L262.43 292.03ZM309.41 270.96L271.36 245.02L271.36 283.61L348.67 283.61L348.67 244.03L309.53 270.72L309.41 270.96ZM309.29 258.72L340.77 237.25L277.8 237.25L309.29 258.72Z" id="a2HYGMFChv"></path><path d="M328.79 262.07L363.48 296.76L344.05 316.18L309.36 281.49L274.67 316.18L255.25 296.76L289.94 262.07L255.25 227.38L274.67 207.95L309.36 242.64L344.05 207.95L363.48 227.38L328.79 262.07Z" id="c6zilRQg7"></path></defs><g><g><g><use xlink:href="#aft0usLv0" opacity="1" fill="#2993f6" fill-opacity="1"></use></g><g><use xlink:href="#a1SAzqBB0l" opacity="1" fill="#bdcaf2" fill-opacity="1"></use></g><g><use xlink:href="#efIPoIdLk" opacity="1" fill="#ffffff" fill-opacity="1"></use></g><g><use xlink:href="#a2CLRHrZpk" opacity="1" fill="#2993f6" fill-opacity="1"></use></g><g><use xlink:href="#c15kVWCZLR" opacity="1" fill="#ffffff" fill-opacity="1"></use></g><g><use xlink:href="#d5aMTkLTM" opacity="1" fill="#2993f6" fill-opacity="1"></use></g><g><use xlink:href="#a2HYGMFChv" opacity="1" fill="#1e1e1e" fill-opacity="1"></use></g><g><use xlink:href="#c6zilRQg7" opacity="0.61" fill="#6e0000" fill-opacity="1"></use></g></g></g></svg>