<?xml version="1.0" encoding="UTF-8" standalone="no"?>
<!DOCTYPE svg PUBLIC "-//W3C//DTD SVG 1.1//EN" "http://www.w3.org/Graphics/SVG/1.1/DTD/svg11.dtd">
<svg version="1.1" xmlns="http://www.w3.org/2000/svg" xmlns:xlink="http://www.w3.org/1999/xlink" preserveAspectRatio="xMidYMid meet" viewBox="0 0 256 256" width="256" height="256"><defs><path d="M9.92 91.6C9.92 112.5 9.92 161.03 9.92 181.71C9.92 190.53 14.9 198.6 22.79 202.53C43.78 213.04 93.88 238.08 114.87 248.58C122.98 252.63 132.54 252.63 140.65 248.58C161.64 238.08 211.87 212.97 232.91 202.44C240.68 198.56 245.6 190.61 245.6 181.91C245.6 161.17 245.6 112.23 245.6 91.26C245.6 83.3 241.1 76.01 233.98 72.45C212.73 61.82 162.74 36.84 142.03 26.48C133.05 21.99 122.47 21.99 113.49 26.48C92.78 36.84 43.03 61.7 21.85 72.29C14.54 75.95 9.92 83.42 9.92 91.6Z" id="bkKePHJdq"></path><path d="M25.06 97.48C25.06 115.69 25.06 157.98 25.06 176.01C25.06 183.7 29.4 190.72 36.27 194.16C54.57 203.31 98.23 225.14 116.53 234.28C123.59 237.82 131.92 237.82 138.99 234.28C157.28 225.14 201.07 203.25 219.39 194.09C226.18 190.7 230.46 183.77 230.46 176.18C230.46 158.11 230.46 115.46 230.46 97.18C230.46 90.24 226.53 83.9 220.33 80.79C201.81 71.54 158.25 49.75 140.19 40.72C132.37 36.8 123.15 36.8 115.32 40.72C97.27 49.75 53.92 71.43 35.46 80.66C29.09 83.84 25.06 90.36 25.06 97.48Z" id="aARckSobc"></path><path d="M35.57 101.65C35.57 117.96 35.57 155.82 35.57 171.96C35.57 178.85 39.46 185.13 45.62 188.22C62 196.4 101.08 215.94 117.45 224.13C123.78 227.3 131.24 227.3 137.57 224.13C153.94 215.94 193.14 196.35 209.55 188.15C215.62 185.11 219.46 178.9 219.46 172.12C219.46 155.94 219.46 117.75 219.46 101.4C219.46 95.18 215.94 89.49 210.38 86.71C193.8 78.42 154.81 58.93 138.65 50.84C131.64 47.34 123.39 47.34 116.37 50.84C100.22 58.93 61.41 78.33 44.89 86.6C39.18 89.45 35.57 95.28 35.57 101.65Z" id="g3dOznzau"></path><path d="M146.34 29.82C146.34 37.69 146.34 56 146.34 63.79C146.34 67.11 148.21 70.16 151.2 71.64C159.11 75.6 177.98 85.04 185.91 88.99C188.96 90.53 192.56 90.53 195.62 88.99C203.53 85.04 222.47 75.58 230.39 71.6C233.33 70.15 235.18 67.14 235.18 63.86C235.18 56.05 235.18 37.59 235.18 29.7C235.18 26.69 233.49 23.94 230.79 22.6C222.8 18.59 203.95 9.18 196.14 5.28C192.76 3.57 188.76 3.57 185.38 5.28C177.57 9.18 158.82 18.55 150.84 22.54C148.08 23.92 146.34 26.74 146.34 29.82Z" id="cyRtl1dxf"></path><path d="M156.91 34.02C156.91 39.99 156.91 53.81 156.91 59.72C156.91 62.24 158.33 64.53 160.58 65.65C166.57 68.66 180.85 75.8 186.84 78.79C189.15 79.95 191.88 79.95 194.19 78.79C200.18 75.8 214.5 68.63 220.49 65.63C222.72 64.53 224.12 62.26 224.12 59.78C224.12 53.86 224.12 39.91 224.12 33.92C224.12 31.65 222.83 29.57 220.8 28.56C214.74 25.54 200.49 18.4 194.58 15.46C192.02 14.18 189.01 14.18 186.44 15.46C180.54 18.4 166.36 25.5 160.32 28.52C158.23 29.56 156.91 31.69 156.91 34.02Z" id="d4M2iC4xa6"></path><path d="M195.96 27.78L196 27.78L196.02 27.79L196.04 27.79L196.06 27.8L196.1 27.8L196.12 27.82L196.14 27.83L196.16 27.84L196.18 27.85L196.21 27.86L196.23 27.87L196.25 27.88L196.27 27.9L196.28 27.92L196.31 27.93L196.33 27.95L196.34 27.96L196.36 27.98L196.37 28L196.4 28.02L196.41 28.04L196.42 28.06L196.44 28.08L196.45 28.11L196.46 28.13L196.47 28.15L196.49 28.17L196.49 28.19L196.5 28.22L196.51 28.24L196.52 28.26L196.52 28.29L196.52 28.32L196.53 28.34L196.53 28.37L196.53 28.39L196.53 28.42L196.53 41.3L209.41 41.3L209.43 41.3L209.47 41.3L209.49 41.3L209.51 41.31L209.55 41.31L209.57 41.32L209.59 41.32L209.61 41.33L209.63 41.34L209.66 41.35L209.68 41.35L209.7 41.37L209.72 41.38L209.75 41.4L209.77 41.41L209.79 41.42L209.81 41.43L209.84 41.46L209.85 41.47L209.87 41.49L209.88 41.51L209.9 41.52L209.91 41.54L209.94 41.57L209.95 41.58L209.96 41.6L209.97 41.62L209.98 41.64L209.99 41.67L210 41.69L210.01 41.71L210.02 41.74L210.02 41.77L210.04 41.79L210.05 41.81L210.05 41.83L210.05 41.87L210.06 41.89L210.06 41.91L210.06 41.94L210.06 52.25L210.06 52.27L210.06 52.3L210.05 52.32L210.05 52.35L210.05 52.38L210.04 52.4L210.02 52.42L210.02 52.45L210.01 52.47L210 52.49L209.99 52.52L209.98 52.55L209.97 52.57L209.96 52.58L209.95 52.6L209.94 52.62L209.91 52.65L209.9 52.67L209.88 52.68L209.87 52.7L209.85 52.71L209.84 52.74L209.81 52.75L209.79 52.77L209.77 52.78L209.75 52.79L209.72 52.8L209.7 52.81L209.68 52.82L209.66 52.84L209.63 52.85L209.61 52.86L209.59 52.87L209.57 52.87L209.55 52.88L209.51 52.88L209.49 52.88L209.47 52.89L209.43 52.89L209.41 52.89L196.53 52.89L196.53 65.76L196.53 65.8L196.53 65.82L196.53 65.85L196.52 65.87L196.52 65.9L196.52 65.92L196.51 65.95L196.5 65.97L196.49 66L196.49 66.02L196.47 66.04L196.46 66.06L196.45 66.09L196.44 66.11L196.42 66.13L196.41 66.15L196.4 66.16L196.37 66.19L196.36 66.21L196.34 66.22L196.33 66.24L196.31 66.25L196.28 66.27L196.27 66.29L196.25 66.3L196.23 66.32L196.21 66.33L196.18 66.34L196.16 66.35L196.14 66.36L196.12 66.37L196.1 66.37L196.06 66.39L196.04 66.4L196.02 66.4L196 66.41L195.96 66.41L195.94 66.41L195.92 66.41L195.88 66.41L185.58 66.41L185.56 66.41L185.53 66.41L185.5 66.41L185.48 66.41L185.46 66.4L185.43 66.4L185.4 66.39L185.38 66.37L185.36 66.37L185.34 66.36L185.32 66.35L185.29 66.34L185.27 66.33L185.25 66.32L185.23 66.3L185.2 66.29L185.18 66.27L185.17 66.25L185.15 66.24L185.13 66.22L185.12 66.21L185.09 66.19L185.08 66.16L185.07 66.15L185.05 66.13L185.04 66.11L185.03 66.09L185.02 66.06L185 66.04L184.99 66.02L184.98 66L184.97 65.97L184.97 65.95L184.96 65.92L184.96 65.9L184.95 65.87L184.95 65.85L184.95 65.82L184.94 65.8L184.94 65.76L184.94 52.89L172.07 52.89L172.03 52.89L172.01 52.89L171.99 52.88L171.95 52.88L171.93 52.88L171.91 52.87L171.89 52.87L171.85 52.86L171.83 52.85L171.81 52.84L171.79 52.82L171.77 52.81L171.74 52.8L171.72 52.79L171.7 52.78L171.69 52.77L171.67 52.75L171.64 52.74L171.62 52.71L171.61 52.7L171.59 52.68L171.58 52.67L171.55 52.65L171.54 52.62L171.53 52.6L171.51 52.58L171.5 52.57L171.49 52.55L171.48 52.52L171.47 52.49L171.47 52.47L171.45 52.45L171.44 52.42L171.43 52.4L171.43 52.38L171.43 52.35L171.42 52.32L171.42 52.3L171.42 52.27L171.42 52.25L171.42 41.94L171.42 41.91L171.42 41.89L171.42 41.87L171.43 41.83L171.43 41.81L171.43 41.79L171.44 41.77L171.45 41.74L171.47 41.71L171.47 41.69L171.48 41.67L171.49 41.64L171.5 41.62L171.51 41.6L171.53 41.58L171.54 41.57L171.55 41.54L171.58 41.52L171.59 41.51L171.61 41.49L171.62 41.47L171.64 41.46L171.67 41.43L171.69 41.42L171.7 41.41L171.72 41.4L171.74 41.38L171.77 41.37L171.79 41.35L171.81 41.35L171.83 41.34L171.85 41.33L171.89 41.32L171.91 41.32L171.93 41.31L171.95 41.31L171.99 41.3L172.01 41.3L172.03 41.3L172.07 41.3L184.94 41.3L184.94 28.42L184.94 28.39L184.95 28.37L184.95 28.34L184.95 28.32L184.96 28.29L184.96 28.26L184.97 28.24L184.97 28.22L184.98 28.19L184.99 28.17L185 28.15L185.02 28.13L185.03 28.11L185.04 28.08L185.05 28.06L185.07 28.04L185.08 28.02L185.09 28L185.12 27.98L185.13 27.96L185.15 27.95L185.17 27.93L185.18 27.92L185.2 27.9L185.23 27.88L185.25 27.87L185.27 27.86L185.29 27.85L185.32 27.84L185.34 27.83L185.36 27.82L185.38 27.8L185.4 27.8L185.43 27.79L185.46 27.79L185.48 27.78L185.5 27.78L185.53 27.78L185.56 27.77L185.58 27.77L195.88 27.77L195.92 27.77L195.94 27.78L195.96 27.78Z" id="c1iWPsovN"></path><path d="M75.69 172.52L75.69 102.21L181.56 102.21L181.56 172.52L75.69 172.52ZM127.96 149.08L85.62 120.22L85.62 163.15L171.63 163.15L171.63 119.12L128.09 148.81L127.96 149.08ZM127.82 135.46L162.84 111.58L92.79 111.58L127.82 135.46Z" id="a3LQN1jq2j"></path><path d="M188.11 177.78L166.49 199.39L127.9 160.79L89.31 199.39L67.7 177.78L106.29 139.19L67.7 100.6L89.31 78.98L127.9 117.57L166.49 78.98L188.11 100.6L149.52 139.19L188.11 177.78Z" id="btq2vMLR2"></path></defs><g><g><g><use xlink:href="#bkKePHJdq" opacity="1" fill="#2993f6" fill-opacity="1"></use><g><use xlink:href="#bkKePHJdq" opacity="1" fill-opacity="0" stroke="#000000" stroke-width="1" stroke-opacity="0"></use></g></g><g><use xlink:href="#aARckSobc" opacity="1" fill="#bdcaf2" fill-opacity="1"></use><g><use xlink:href="#aARckSobc" opacity="1" fill-opacity="0" stroke="#000000" stroke-width="1" stroke-opacity="0"></use></g></g><g><use xlink:href="#g3dOznzau" opacity="1" fill="#ffffff" fill-opacity="1"></use><g><use xlink:href="#g3dOznzau" opacity="1" fill-opacity="0" stroke="#000000" stroke-width="1" stroke-opacity="0"></use></g></g><g><use xlink:href="#cyRtl1dxf" opacity="1" fill="#2993f6" fill-opacity="1"></use><g><use xlink:href="#cyRtl1dxf" opacity="1" fill-opacity="0" stroke="#000000" stroke-width="1" stroke-opacity="0"></use></g></g><g><use xlink:href="#d4M2iC4xa6" opacity="1" fill="#ffffff" fill-opacity="1"></use><g><use xlink:href="#d4M2iC4xa6" opacity="1" fill-opacity="0" stroke="#000000" stroke-width="1" stroke-opacity="0"></use></g></g><g><use xlink:href="#c1iWPsovN" opacity="1" fill="#2993f6" fill-opacity="1"></use><g><use xlink:href="#c1iWPsovN" opacity="1" fill-opacity="0" stroke="#000000" stroke-width="1" stroke-opacity="0"></use></g></g><g><use xlink:href="#a3LQN1jq2j" opacity="1" fill="#1e1e1e" fill-opacity="1"></use><g><use xlink:href="#a3LQN1jq2j" opacity="1" fill-opacity="0" stroke="#000000" stroke-width="1" stroke-opacity="0"></use></g></g><g><use xlink:href="#btq2vMLR2" opacity="0.39" fill="#6e0000" fill-opacity="1"></use><g><use xlink:href="#btq2vMLR2" opacity="0.39" fill-opacity="0" stroke="#000000" stroke-width="1" stroke-opacity="0"></use></g></g></g></g></svg>